<svg xmlns="http://www.w3.org/2000/svg" width="80" height="80" fill="none" viewBox="0 0 80 80">
    <circle cx="40" cy="40" r="40" fill="#EB0000"/>
    <path fill="#EB0000" fill-rule="evenodd" d="M40 80c22.092 0 40-17.908 40-40S62.092 0 40 0 0 17.908 0 40s17.908 40 40 40z" clip-rule="evenodd"/>
    <path fill="#fff" fill-rule="evenodd" d="M63.668 44C61.764 55.35 51.892 64 40 64c-10.216 0-18.942-6.383-22.405-15.38l-.839 1.976c-.34.803-1.264 1.176-2.066.835l-2.9-1.231 4.925-11.604 11.603 4.926-1.231 2.9c-.34.803-1.264 1.176-2.066.835l-1.817-.77C25.807 53.221 32.346 58 40 58c8.566 0 15.735-5.984 17.554-14h6.114zM40 16c9.422 0 17.576 5.43 21.504 13.33l.683-2.55c.242-.906 1.172-1.442 2.078-1.2l3.278.88-3.514 13.111-13.112-3.513.879-3.278c.243-.907 1.172-1.443 2.078-1.2l2.359.632C53.329 26.17 47.15 22 40 22c-7.837 0-14.505 5.009-16.976 12h-6.268C19.42 23.649 28.817 16 40 16z" clip-rule="evenodd"/>
    <path fill="#E81C11" d="M40 80c22.091 0 40-17.909 40-40S62.091 0 40 0 0 17.909 0 40s17.909 40 40 40z"/>
    <path fill="#fff" d="M48.186 60H32.01C21.226 60 12.5 51.078 12.5 40s8.726-20 19.51-20h16.176c10.687 0 19.51 8.922 19.51 20s-8.725 20-19.51 20z"/>
    <path fill="#E81C11" d="M44.462 29.313h-3.04v4.902H39.07v2.843h2.353v10.49h3.04v-10.49h2.352v-2.843h-2.352v-4.903zM53.58 39.314l-.588-.294c-.098-.098-.294-.098-.392-.196-1.078-.49-1.863-.98-1.863-1.667 0-.588.589-.98 1.079-.98.588 0 1.176.392 1.372.98l.098.294 2.451-1.372-.098-.196c-.784-1.569-2.157-2.451-3.725-2.451-2.255 0-4.02 1.862-4.02 4.117 0 1.961 1.177 2.745 2.647 3.53l.883.49 1.568.882c.589.392.785.588.785 1.177 0 .98-.883 1.568-1.667 1.568-1.078 0-1.569-.588-2.059-1.568l-.098-.196-2.745 1.176.098.196c.686 1.863 2.55 3.137 4.706 3.137 2.647 0 4.706-2.058 4.706-4.607 0-2.255-1.569-3.236-3.138-4.02zM31.912 44.608c-2.06 0-3.824-1.764-3.824-3.823v-.098-.098c0-.196 0-.392.098-.588.294-1.863 1.863-3.236 3.824-3.236 2.157 0 3.823 1.765 3.823 3.922v.098c-.098 2.157-1.863 3.823-3.921 3.823zm0-10.98c-1.373 0-2.745.392-3.824 1.176h-.098v-1.078h-2.941v19.411h2.941v-6.666c1.078.784 2.451 1.177 3.824 1.177 3.725 0 6.764-3.138 6.862-6.961v-.098c.098-3.824-3.039-6.961-6.764-6.961z"/>
</svg>
