<svg xmlns="http://www.w3.org/2000/svg" width="50" height="50" fill="none" viewBox="0 0 50 50">
    <circle cx="25" cy="25" r="25" fill="#000"/>
    <path fill="#fff" fill-rule="evenodd" d="M29.042 30.267c-3.912 2.866-9.436 2.53-12.97-1.005-3.906-3.905-3.906-10.236 0-14.142 3.904-3.905 10.236-3.905 14.141 0 3.535 3.536 3.87 9.06 1.005 12.971l5.903 5.904c.39.39.39 1.023 0 1.414l-.761.761c-.39.39-1.024.39-1.414 0l-5.904-5.903zm-1.004-3.18c2.703-2.704 2.703-7.087 0-9.79-2.704-2.705-7.087-2.705-9.79 0-2.705 2.703-2.705 7.086 0 9.79 2.703 2.703 7.086 2.703 9.79 0z" clip-rule="evenodd"/>
</svg>
