<?xml version="1.0" encoding="UTF-8"?>
<svg width="28px" height="20px" viewBox="0 0 28 20" version="1.1" xmlns="http://www.w3.org/2000/svg" xmlns:xlink="http://www.w3.org/1999/xlink">
    <!-- Generator: Sketch 53.2 (72643) - https://sketchapp.com -->
    <title>icon / 20px PTS</title>
    <desc>Created with Sketch.</desc>
    <defs>
        <polygon id="path-1" points="0.0006 0.116 28.1746 0.116 28.1746 19.9999 0.0006 19.9999"></polygon>
    </defs>
    <g id="icon-/-20px-PTS" stroke="none" stroke-width="1" fill="none" fill-rule="evenodd">
        <g id="Group-12" transform="translate(0.000000, -1.000000)">
            <path d="M18.2346,2.4465 L9.9426,2.4465 C5.2576,2.4465 1.4466,6.2575 1.4466,10.9415 C1.4466,15.6265 5.2576,19.4365 9.9426,19.4365 L18.2346,19.4365 C22.9176,19.4365 26.7276,15.6265 26.7276,10.9415 C26.7276,6.2575 22.9176,2.4465 18.2346,2.4465" id="Fill-1" fill="#FFFFFF"></path>
            <g id="Group-5" transform="translate(0.000000, 0.883900)">
                <mask id="mask-2" fill="white">
                    <use xlink:href="#path-1"></use>
                </mask>
                <g id="Clip-4"></g>
                <path d="M18.2346,18.5529 L9.9426,18.5529 C5.2576,18.5529 1.4466,14.7419 1.4466,10.0579 C1.4466,5.3729 5.2576,1.5629 9.9426,1.5629 L18.2346,1.5629 C22.9176,1.5629 26.7276,5.3729 26.7276,10.0579 C26.7276,14.7419 22.9176,18.5529 18.2346,18.5529 M18.2346,0.1159 L9.9426,0.1159 C4.4606,0.1159 0.0006,4.5759 0.0006,10.0579 C0.0006,15.5399 4.4606,19.9999 9.9426,19.9999 L18.2346,19.9999 C23.7146,19.9999 28.1746,15.5399 28.1746,10.0579 C28.1746,4.5759 23.7146,0.1159 18.2346,0.1159" id="Fill-3" fill="#EC1C24" mask="url(#mask-2)"></path>
            </g>
            <polygon id="Fill-6" fill="#EC1C24" points="16.3157 5.5706 14.7757 5.5706 14.7757 8.0136 13.5667 8.0136 13.5667 9.4246 14.7757 9.4246 14.7757 11.2556 14.7757 14.6806 16.3157 14.6806 16.3157 11.2556 16.3157 9.4246 17.5137 9.4246 17.5137 8.0136 16.3157 8.0136"></polygon>
            <path d="M20.9724,10.5833 C20.8774,10.5403 20.7824,10.4983 20.6884,10.4573 C20.6204,10.4273 20.5544,10.3973 20.4894,10.3683 C19.9524,10.1273 19.5234,9.8983 19.5244,9.5283 C19.5244,9.2293 19.8144,9.0203 20.0754,9.0203 C20.3624,9.0203 20.6514,9.2203 20.7924,9.5193 L20.8544,9.6473 L22.1224,8.9723 L22.0644,8.8533 C21.6824,8.0723 20.9834,7.6243 20.1464,7.6243 C19.0024,7.6233 18.0714,8.5403 18.0714,9.6683 C18.0704,10.6453 18.6744,11.0513 19.4054,11.4443 L19.8454,11.6813 L20.6284,12.0993 C20.9064,12.2843 21.0304,12.4153 21.0304,12.7003 C21.0294,13.2133 20.5864,13.4893 20.1704,13.4893 C19.6264,13.4893 19.3484,13.1813 19.0974,12.7183 L19.0364,12.6053 L17.7234,13.2023 L17.7684,13.3223 C18.1214,14.2573 19.0864,14.8853 20.1694,14.8863 C21.5124,14.8873 22.5654,13.8723 22.5674,12.5753 C22.5684,11.4603 21.7614,10.9423 20.9724,10.5833" id="Fill-8" fill="#EC1C24"></path>
            <path d="M9.8948,7.7551 C9.1788,7.7551 8.5148,7.9701 7.9598,8.3391 C7.9498,8.3461 7.9398,8.3541 7.9298,8.3601 L7.9298,7.8291 L6.4108,7.8291 L6.4108,10.9351 L6.4108,11.2941 L6.4108,11.5261 L6.4108,17.4831 L7.9298,17.4831 L7.9298,14.1501 C8.4898,14.5301 9.1658,14.7541 9.8948,14.7541 C11.8148,14.7541 13.3728,13.2081 13.3938,11.2941 C13.3938,11.2811 13.3948,11.2691 13.3948,11.2691 C13.3948,9.3211 11.8278,7.7551 9.8948,7.7551 M9.8948,13.2221 C8.8238,13.2221 7.9508,12.3601 7.9298,11.2941 C7.9288,11.2811 7.9278,11.2691 7.9278,11.2691 C7.9278,11.2411 7.9288,11.2281 7.9298,11.2151 C7.9318,11.1101 7.9418,11.0081 7.9598,10.9081 C8.1248,9.9881 8.9288,9.2871 9.8948,9.2871 C10.9798,9.2871 11.8628,10.1701 11.8628,11.2551 C11.8628,11.2551 11.8608,11.2811 11.8608,11.2941 C11.8388,12.3601 10.9668,13.2221 9.8948,13.2221" id="Fill-10" fill="#EC1C24"></path>
        </g>
    </g>
</svg>